Coordinates
version=1
nRows=21
nColumns=11
inDegrees=yes

Units are S.I. units (second, meters, Newtons, ...)
If the header above contains a line with 'inDegrees', this indicates whether rotational values are in degrees (yes) or radians (no).

endheader
time	pelvis_tilt	pelvis_tx	pelvis_ty	hip_flexion_l	hip_flexion_r	knee_angle_l	knee_angle_r	ankle_angle_l	ankle_angle_r	lumbar_extension
      2.21000000	      6.09646825	     -0.11305641	      0.89413026	     -7.30185006	     21.84792484	    -32.85935537	    -15.59671727	     24.44239149	     -6.30566364	    -10.47579952
      2.22000000	      6.03575256	     -0.10049103	      0.89213695	     -7.65925949	     21.95010440	    -33.66261704	    -15.72341916	     23.98901503	     -6.46490377	    -10.21409844
      2.23000000	      5.95527738	     -0.08764888	      0.89029775	     -7.95612016	     21.96785110	    -34.54571075	    -16.11329614	     23.40201011	     -6.54366105	     -9.89905083
      2.24000000	      5.83265748	     -0.07456024	      0.88865363	     -8.19461094	     21.98864689	    -35.44080362	    -16.83746669	     22.38295307	     -6.52343744	     -9.51476581
      2.25000000	      5.77417255	     -0.06103581	      0.88727279	     -8.52168342	     21.77948993	    -36.29511091	    -17.65703245	     21.36218898	     -6.49053058	     -9.15261091
      2.26000000	      5.57693061	     -0.04724582	      0.88590927	     -8.71047722	     21.65466790	    -37.12410412	    -18.60949367	     20.17760483	     -6.95480976	     -8.60388527
      2.27000000	      5.12436861	     -0.03366344	      0.88486351	     -8.60263353	     22.08146305	    -37.88679940	    -20.15873489	     18.59504338	     -7.70814766	     -7.81321840
      2.28000000	      4.56670747	     -0.01984226	      0.88388171	     -8.36855836	     22.97364658	    -38.62995564	    -22.47915784	     16.77618549	     -6.57140967	     -6.87913418
      2.29000000	      3.97316719	     -0.00585348	      0.88311638	     -8.04759237	     24.01204321	    -39.42121024	    -24.88343327	     14.83595893	     -5.87786721	     -5.87228993
      2.30000000	      3.54466297	      0.00819029	      0.88265492	     -7.76509967	     24.57936582	    -40.36591710	    -26.71543168	     12.40946166	     -5.31506575	     -5.07301029
      2.31000000	      3.26151730	      0.02214092	      0.88265220	     -7.50756019	     24.73381941	    -41.42173679	    -28.20055731	      9.56158745	     -4.22761408	     -4.48017495
      2.32000000	      3.00407529	      0.03602383	      0.88264862	     -7.08118654	     24.69130440	    -42.67434327	    -29.43583365	      6.48861527	     -2.90675880	     -3.93054747
      2.33000000	      2.67754678	      0.04966822	      0.88253739	     -6.38818854	     24.61992489	    -44.08351353	    -30.47732379	      3.10146038	     -1.53305769	     -3.35731800
      2.34000000	      2.35354659	      0.06301519	      0.88253127	     -5.53670401	     24.44103745	    -45.56496429	    -31.31170548	     -0.60374857	     -0.26131963	     -2.84162048
      2.35000000	      1.91031424	      0.07588431	      0.88235732	     -4.37996832	     24.37050469	    -47.15650533	    -32.08156853	     -4.39086627	      1.06009409	     -2.26930468
      2.36000000	      1.43764200	      0.08830356	      0.88219841	     -3.02121137	     24.28495817	    -48.98873037	    -32.73028291	     -7.97168751	      2.33133948	     -1.74445503
      2.37000000	      0.94397967	      0.10039606	      0.88200997	     -1.46117955	     24.21715938	    -50.96683440	    -33.28321764	    -11.50479298	      3.49464943	     -1.22705751
      2.38000000	      0.51151125	      0.11217019	      0.88202238	      0.20347656	     23.99263485	    -53.11931962	    -33.65384660	    -14.87790648	      4.44739650	     -0.86181657
      2.39000000	      0.11094613	      0.12361327	      0.88215637	      2.00886314	     23.71531826	    -55.41366724	    -33.96291649	    -18.09256152	      5.42494047	     -0.48097071
      2.40000000	     -0.33818705	      0.13440221	      0.88261377	      4.00235021	     23.32755640	    -57.81326949	    -33.85426892	    -19.50962155	      6.07992331	     -0.16327654
      2.41000000	     -0.67749577	      0.14562919	      0.88338659	      5.84536008	     22.74208747	    -60.10702288	    -33.65664562	    -18.96196835	      6.74765118	      0.09892979
